<?xml version="1.0" encoding="UTF-8" standalone="no"?>
<!DOCTYPE svg PUBLIC "-//W3C//DTD SVG 1.1//EN" "http://www.w3.org/Graphics/SVG/1.1/DTD/svg11.dtd">
<svg width="100%" height="100%" viewBox="0 0 1008 666" version="1.1" xmlns="http://www.w3.org/2000/svg" xmlns:xlink="http://www.w3.org/1999/xlink" xml:space="preserve" xmlns:serif="http://www.serif.com/" style="fill-rule:evenodd;clip-rule:evenodd;stroke-linejoin:round;stroke-miterlimit:2;">
    <g transform="matrix(0.631327,-0.631327,1.55108,1.55108,212.976,112.325)">
        <rect x="83.401" y="188.773" width="21.846" height="28.4" style="fill:rgb(63,61,86);"/>
    </g>
    <g transform="matrix(1,0,0,1,124.44,-282.632)">
        <rect x="567.401" y="586.773" width="21.846" height="28.4" style="fill:rgb(63,61,86);"/>
    </g>
    <g transform="matrix(-3.82857e-16,1,-1,-3.82857e-16,1311.09,-554.86)">
        <rect x="991.267" y="408.694" width="21.846" height="28.4" style="fill:rgb(63,61,86);"/>
    </g>
    <g transform="matrix(1,0,0,1,-140.415,-0.164621)">
        <circle cx="847.031" cy="525.346" r="86.292" style="fill:rgb(47,46,65);"/>
    </g>
    <g transform="matrix(1,0,0,1,-140.415,-0.164621)">
        <path d="M880.36,643.515L906.156,638.845L897.789,584.981L871.993,589.651L880.36,643.515Z" style="fill:rgb(47,46,65);fill-rule:nonzero;"/>
    </g>
    <g transform="matrix(-0.984006,0.178133,-0.178133,-0.984006,1747.18,1178.71)">
        <rect x="920.61" y="713.739" width="26.215" height="46.969" style="fill:rgb(47,46,65);"/>
    </g>
    <g transform="matrix(0.763108,-0.646271,0.646271,0.763108,-510.671,667.101)">
        <ellipse cx="933.402" cy="766.142" rx="21.846" ry="8.192" style="fill:rgb(47,46,65);"/>
    </g>
    <g transform="matrix(0.763108,-0.646271,0.646271,0.763108,-497.735,699.394)">
        <ellipse cx="983.92" cy="764.643" rx="21.846" ry="8.192" style="fill:rgb(47,46,65);"/>
    </g>
    <g transform="matrix(1,0,0,1,-140.415,-0.164621)">
        <circle cx="840.99" cy="504.238" r="29.492" style="fill:white;"/>
    </g>
    <g transform="matrix(1,0,0,1,-140.415,-0.164621)">
        <circle cx="828.869" cy="493.667" r="9.831" style="fill:rgb(63,61,86);"/>
    </g>
    <g transform="matrix(1,0,0,1,-236.651,-117.624)">
        <path d="M1011.34,548.928C1012.64,516.982 985.103,489.923 949.842,488.49C914.58,487.058 884.942,511.795 883.645,543.741C882.347,575.688 906.858,582.946 942.12,584.379C977.382,585.811 1010.04,580.875 1011.34,548.928Z" style="fill:rgb(169,50,38);fill-rule:nonzero;"/>
    </g>
    <g transform="matrix(0.223422,-0.974722,0.974722,0.223422,-177.24,1211.11)">
        <ellipse cx="863.588" cy="627.084" rx="13.545" ry="43.146" style="fill:rgb(47,46,65);"/>
    </g>
    <g transform="matrix(0.223422,-0.974722,0.974722,0.223422,-73.1535,1398.1)">
        <ellipse cx="1032.98" cy="655.253" rx="13.545" ry="43.146" style="fill:rgb(47,46,65);"/>
    </g>
    <g transform="matrix(1,0,0,1,-236.651,-117.624)">
        <path d="M966.967,676.812C967.178,677.972 967.284,679.148 967.284,680.327C967.284,691.113 958.408,699.988 947.622,699.988C938.148,699.988 929.954,693.14 928.273,683.816C926.338,673.131 934.6,669.35 945.285,667.416C955.97,665.482 965.033,666.127 966.967,676.812Z" style="fill:white;fill-rule:nonzero;"/>
    </g>
    <g transform="matrix(1,0,0,1,105.843,0.232361)">
        <path d="M398.526,582.508L395.526,621.508L424.526,624.508L417.526,577.508L398.526,582.508Z" style="fill:rgb(255,185,185);fill-rule:nonzero;"/>
    </g>
    <g transform="matrix(0.929659,0.368422,-0.368422,0.929659,281.472,-212.052)">
        <path d="M393.723,344.814L393.723,344.814C418.442,352.431 431.628,380.845 423.174,408.278L412.434,443.132L401.714,439.829L399.488,425.003L397.06,438.394L328.16,417.162L326.135,403.684L323.928,415.858L316.171,413.468L324.604,386.101C334.332,354.533 365.277,336.048 393.723,344.814Z" style="fill:rgb(47,46,65);fill-rule:nonzero;"/>
    </g>
    <g transform="matrix(0.700139,0.714006,-0.714006,0.700139,514.784,-237.146)">
        <path d="M355.331,449.425C354.452,449.279 353.564,449.206 352.674,449.206C344.177,449.206 337.045,455.878 336.478,464.355C336.047,470.398 338.133,477.472 347.5,482.711C367.508,493.901 410.896,518.297 410.896,518.297L493.68,534.195C493.68,534.195 535.514,567.576 540.755,548.59C545.996,529.604 501.06,518.012 501.06,518.012L425.006,498.508L376.545,463.455C376.545,463.455 367.665,451.602 355.331,449.425Z" style="fill:rgb(255,185,185);fill-rule:nonzero;"/>
    </g>
    <g transform="matrix(0.837626,0.593006,-0.733631,1.03626,471.949,-168.957)">
        <path d="M232.636,409.747L240.956,433.196L288.373,423.453L278.021,403.695L232.636,409.747Z" style="fill:rgb(255,185,185);fill-rule:nonzero;"/>
    </g>
    <g transform="matrix(1,0,0,1,105.843,0.232361)">
        <path d="M99.125,630.247L61.304,626.464L87.779,600.746L106.69,613.605L99.125,630.247Z" style="fill:rgb(255,185,185);fill-rule:nonzero;"/>
    </g>
    <g transform="matrix(0.929659,0.368422,-0.368422,0.929659,327.663,-67.3999)">
        <circle cx="288.744" cy="274.77" r="31.063" style="fill:rgb(255,185,185);"/>
    </g>
    <g transform="matrix(0.929659,0.368422,-0.368422,0.929659,281.472,-212.052)">
        <path d="M360.641,397.099C360.641,397.099 343.243,417.523 334.166,420.549C325.089,423.575 302.396,452.319 313.742,471.23C325.089,490.141 366.693,466.691 366.693,466.691L365.18,447.78C365.18,447.78 382.578,417.523 386.36,415.254C390.142,412.984 360.641,397.099 360.641,397.099Z" style="fill:rgb(255,185,185);fill-rule:nonzero;"/>
    </g>
    <g transform="matrix(0.744348,0.667792,-0.667792,0.744348,477.597,-225.723)">
        <path d="M357.617,433.621C346.051,416.208 319.224,419.323 312.569,439.14C312.451,439.493 312.338,439.851 312.229,440.216C306.178,460.64 315.255,495.436 315.255,495.436L328.871,536.283C328.871,536.283 364.423,519.641 390.142,547.629L386.36,518.885C386.36,518.885 396.95,494.679 383.334,477.281C374.669,466.209 366.616,447.171 357.617,433.621Z" style="fill:rgb(87,90,137);fill-rule:nonzero;"/>
    </g>
    <g transform="matrix(1,0,0,1,9.60765,-117.227)">
        <path d="M178.719,742.411L177.206,753.757C177.206,753.757 127.282,743.923 116.692,753.001C106.102,762.078 106.102,768.129 97.781,762.078C94.245,759.506 97.267,753.245 101.911,746.895C109.266,736.933 118.933,728.907 130.077,723.509C142.561,717.396 159.808,708.515 159.808,706.102C159.808,702.32 173.424,690.973 178.719,697.025C184.014,703.076 193.848,719.718 193.848,719.718L178.719,742.411Z" style="fill:rgb(47,46,65);fill-rule:nonzero;"/>
    </g>
    <g transform="matrix(1,0,0,1,9.60765,-117.227)">
        <path d="M490.092,720.968C490.092,720.968 479.005,760.278 483.036,762.294C487.068,764.31 495.132,770.358 507.228,770.358C514.375,770.358 525.041,774.229 532.573,777.397C541.353,781.148 550.891,782.788 560.42,782.187C566.769,781.75 572.166,780.261 571.738,776.406C570.73,767.334 551.579,765.318 551.579,765.318L531.419,739.111C531.419,739.111 527.891,722.479 524.867,722.479C523.22,722.558 521.602,722.018 520.331,720.967L490.092,720.968Z" style="fill:rgb(47,46,65);fill-rule:nonzero;"/>
    </g>
    <g transform="matrix(0.929659,0.368422,-0.368422,0.929659,281.472,-212.052)">
        <path d="M376.782,354.576C382.95,350.062 390.884,348.676 398.216,350.832L399.095,351.103C416.037,356.324 425.048,375.887 419.22,394.799L419.22,394.799L413.543,393.05L414.776,385.789L411.282,392.353L377.612,381.977L376.61,375.204L375.496,381.325L368.872,379.284C361.051,393.682 360.762,410.401 368.005,429.441L356.721,425.964L354.718,412.417L352.49,424.66L330.981,418.031L335.118,389.569C341.386,369.23 358.518,355.625 376.782,354.576Z" style="fill:rgb(47,46,65);fill-rule:nonzero;"/>
    </g>
    <rect x="44.019" y="662.841" width="963.51" height="2.241" style="fill:rgb(63,61,86);"/>
    <g transform="matrix(1,0,0,1,-324.693,256.152)">
        <circle cx="533.608" cy="147" r="15" style="fill:rgb(169,50,38);"/>
    </g>
    <g transform="matrix(1,0,0,1,-43.7389,50.2842)">
        <circle cx="698.608" cy="70" r="15" style="fill:rgb(169,50,38);"/>
    </g>
    <g transform="matrix(0.304241,-0.304241,0.7277,0.7277,389.853,252.427)">
        <rect x="487.608" y="343" width="182" height="18" style="fill:rgb(63,61,86);"/>
    </g>
    <g transform="matrix(1,0,0,1,9.60765,-117.227)">
        <path d="M390.52,549.52C390.52,549.52 353.525,530.958 346.366,540.247L328.493,558.598C328.493,558.598 289.158,589.611 311.095,637.267L309.582,708.371L303.531,728.795L193.848,719.718L190.066,754.514L209.733,756.026C209.733,756.026 320.929,799.899 338.326,772.668C355.724,745.436 392.033,638.023 392.033,638.023L486.215,652.126C486.215,652.126 483.458,681.601 486.484,685.383C489.51,689.165 487.997,705.05 489.51,708.076C491.023,711.102 489.762,718.968 489.762,718.968L521.011,717.936L521.011,702.807C521.011,702.807 524.793,682.383 524.793,677.088C524.793,671.793 547.486,602.201 508.151,596.15C468.817,590.099 401.11,579.021 401.11,579.021L390.52,549.52Z" style="fill:rgb(47,46,65);fill-rule:nonzero;"/>
    </g>
    <g transform="matrix(0.785448,-0.618928,0.618928,0.785448,-104.582,200.662)">
        <path d="M355.179,431.285C352.366,424.122 345.418,419.385 337.722,419.385C334.76,419.385 331.839,420.087 329.2,421.433C322.951,424.586 317.17,430.847 317.525,443.242C318.281,469.717 319.794,527.206 319.794,527.206L353.077,618.734C353.077,618.734 344.756,680.005 366.693,673.954C388.629,667.902 373.5,616.465 373.5,616.465L347.782,529.475L353.833,460.64C353.833,460.64 360.328,444.808 355.179,431.285Z" style="fill:rgb(255,185,185);fill-rule:nonzero;"/>
    </g>
</svg>
